# xmcd
#
# Track frame offsets: 
#        150
#        20927
#        34830
#        55712
#        70162
#        95737
#        116565
#        139555
#        153245
#        182720
#        198287
#        224702
#        239292
#
# Disc length: 3383 seconds
#
# Revision: 0
# Processed by: cddbd v1.5.1PL0 Copyright (c) Steve Scherf et al.
# Submitted via: ExactAudioCopy v0.95a3
#
DISCID=bc0d350d
DTITLE=Peter Malick - Wrong Side Of My Life
DYEAR=1998
DGENRE=Blues
TTITLE0=I Wrote The Book
TTITLE1=Gotta Love Somebody
TTITLE2=Fashion Cafe
TTITLE3=Wrong Side Of My Life
TTITLE4=Casino Massacre Of 1999
TTITLE5=Eileen (If You Only Knew)
TTITLE6=Strange Love
TTITLE7=House Rent March
TTITLE8=Blues For Otis
TTITLE9=Lower East Side
TTITLE10=Blues Time
TTITLE11=The Purpose Is
TTITLE12=Mean Old World
EXTD=
EXTT0=
EXTT1=
EXTT2=
EXTT3=
EXTT4=
EXTT5=
EXTT6=
EXTT7=
EXTT8=
EXTT9=
EXTT10=
EXTT11=
EXTT12=
PLAYORDER=
